<svg xmlns="http://www.w3.org/2000/svg" width="79.196" height="91.026" viewBox="0 0 79.196 91.026">
  <g id="icon_3" transform="translate(-0.413 0.5)">
    <path id="Path_3" data-name="Path 3" d="M72.53,14.827a35.374,35.374,0,0,0-62.387,9.427,40.7,40.7,0,0,0-1.229,5.127A41.908,41.908,0,0,1,7.8,34.122C6.362,38.657,4.886,43.18,3.411,47.7q-1.17,3.583-2.333,7.166c-.024.124-.048.23-.069.327a2.568,2.568,0,0,0-.057,1.139A3.34,3.34,0,0,0,2.56,58.707a2.582,2.582,0,0,0,1.1.38c.092.015.195.032.313.054l4.383.307q0,2.738.008,5.47t.007,5.47A9.66,9.66,0,0,0,19.2,79.919a96.651,96.651,0,0,0,9.636-1.7l.224-.05.1-.022c.144-.032.292-.066.44-.1v8.765a3.847,3.847,0,0,0,.71,2.041,3.367,3.367,0,0,0,5.115,0,3.928,3.928,0,0,0,.718-2.041V73.778q-.02-.167-.036-.335a2.545,2.545,0,0,0-.311-1.13,3.33,3.33,0,0,0-2.35-1.759,2.529,2.529,0,0,0-1.174.019c-.1.019-.205.04-.33.06l-.1.032a83.1,83.1,0,0,1-13.463,2.759,3.226,3.226,0,0,1-3.468-3.05c-.024-2.8-.02-5.6-.018-8.388l0-2.79c0-.314.009-.631.017-.947.039-1.422.077-2.822-.671-3.822a3.955,3.955,0,0,0-1.7-1.174l-.693-.126L8.582,52.9l5.392-16.64A33.388,33.388,0,0,0,15.14,31.45q.009-.083.024-.165c.02-.11.035-.219.051-.327a28.636,28.636,0,0,1,6.6-14.318A29.381,29.381,0,0,1,49.9,7.212,29.254,29.254,0,0,1,71.64,28.029a29.33,29.33,0,0,1-2.523,21.1A27.7,27.7,0,0,0,65.68,62.183V73.8c.012.087.02.176.027.265a3.2,3.2,0,0,0,.06.46,3.294,3.294,0,0,0,1.766,2.215,3.336,3.336,0,0,0,3.972-.907,3.919,3.919,0,0,0,.71-2.041V72.722q0-1.77,0-3.537c0-2.358-.007-4.716,0-7.08a20.261,20.261,0,0,1,2.286-9.2c.023-.038.044-.079.066-.12l.044-.085a36.79,36.79,0,0,0,3.72-9.83,35.707,35.707,0,0,0-5.8-28.044ZM28.073,36.065l20.68-17.841a1.35,1.35,0,0,1,2.16,1.458l-3.159,9.26a1.35,1.35,0,0,0,1.278,1.787H58a1.349,1.349,0,0,1,.89,2.364L35.6,53.526a1.35,1.35,0,0,1-2.126-1.558L38.592,40.33a1.35,1.35,0,0,0-1.236-1.893h-8.4a1.35,1.35,0,0,1-.882-2.372Z" fill="#8cefe9" fill-rule="evenodd"/>
    <path id="Path_4" data-name="Path 4" d="M43.839,0l0-.5h0ZM72.53,14.827l.407-.291-.407.29ZM32.212,1.915l-.162-.472ZM10.142,24.254l.475.157ZM8.913,29.38l.49.1ZM7.8,34.121l-.477-.151.477.151ZM3.41,47.7l.475.155ZM1.077,54.869.6,54.715l-.01.028,0,.029Zm-.069.327L.52,55.089ZM.951,56.335l-.5.07v0Zm1.608,2.372.251-.432h0l-.249.433Zm1.1.38-.082.493Zm.313.054-.091.492.028.005.028,0,.035-.5Zm4.383.307h.5v-.466l-.465-.032Zm.008,5.47h0Zm.007,5.47h-.5v0l.5,0ZM10.1,75.843l-.411.285.41-.285Zm9.1,4.076.06.5h0Zm9.411-1.648-.1-.49-.008,0Zm.45-.1.1.489.008,0-.11-.487Zm.1-.022-.11-.488Zm.44-.1h.5V77.4l-.627.164.126.484Zm0,8.765h-.5v.026l0,.027.5-.053Zm.709,2.041.39-.312v0l-.39.314Zm5.115,0,.391.312-.39-.312Zm.718-2.041.5.058,0-.03v-.028Zm0-13.03h.5v-.03l0-.029-.5.06Zm-.036-.335-.5.049.5-.05Zm-.311-1.13-.447.223v0l.447-.226Zm-2.35-1.759-.092.492h0l.09-.492Zm-1.174.019-.094-.491Zm-.33.06-.084-.493-.032.006-.032.01.147.477Zm-.1.032.14.48.007,0-.147-.478ZM18.371,73.424l.056.5h0ZM14.9,70.374l-.5,0v0l.5-.009Zm-.018-8.388h0Zm.02-3.737.5.013-.5-.013Zm-.672-3.822.4-.3,0,0Zm-1.7-1.174.19-.463-.049-.02-.051-.01Zm-.693-.126.089-.492L11.9,52.63l-.027,0-.035.5ZM8.581,52.9l-.475-.154-.2.608.637.045.035-.5Zm5.392-16.64.475.155h0Zm1.166-4.808.494.081,0-.015,0-.016Zm.024-.165.492.09v0Zm.051-.327-.495-.072Zm.051-.327.493.087v-.006Zm6.55-13.991-.378-.327.379.327ZM49.9,7.212l-.106.489ZM71.64,28.03l.483-.128-.484.128Zm-2.523,21.1.439.24v0l-.44-.238ZM65.68,62.183h0Zm0,11.619h-.5v.033l0,.033.5-.066Zm.027.265-.5.042.5-.041Zm.06.46.488-.109v0Zm1.766,2.215.218-.45h0Zm3.972-.907.392.312,0,0Zm.71-2.041.5.053,0-.026v-.027Zm0-4.61h0Zm0-7.08-.5,0,.5,0Zm2.286-9.2-.424-.265-.01.017-.01.018.444.23Zm.066-.12.445.227-.445-.228Zm.044-.085.437.243,0,0-.439-.24Zm3.72-9.83.49.106-.49-.1ZM48.754,18.225l-.327-.379Zm-20.68,17.84.326.38Zm22.84-16.382.473.161-.474-.161Zm-3.159,9.26-.473-.16Zm11.133,4.151.33.376ZM35.6,53.526l-.33-.376Zm-2.126-1.558.458.2-.458-.2ZM38.592,40.33l.458.2-.458-.2ZM43.836.5A35.206,35.206,0,0,1,72.124,15.117l.813-.581A36.2,36.2,0,0,0,43.84-.5l-.005,1ZM32.375,2.388A35.383,35.383,0,0,1,43.839.5v-1a36.387,36.387,0,0,0-11.79,1.943ZM10.617,24.411A35.011,35.011,0,0,1,32.375,2.388l-.326-.945A36.019,36.019,0,0,0,9.667,24.1ZM9.4,29.477a40.152,40.152,0,0,1,1.213-5.066l-.95-.315a41.547,41.547,0,0,0-1.245,5.19l.982.19Zm-1.127,4.8a42.456,42.456,0,0,0,1.127-4.8l-.982-.191a41.416,41.416,0,0,1-1.1,4.685l.953.3ZM3.885,47.858c1.476-4.522,2.953-9.048,4.392-13.584l-.953-.3q-2.168,6.8-4.39,13.577l.951.31ZM1.553,55.023q1.16-3.583,2.332-7.165l-.95-.31Q1.765,51.13.6,54.715l.95.308ZM1.5,55.3c.02-.1.045-.207.07-.337l-.98-.194c-.024.119-.046.22-.067.317Zm-.05.961a2.3,2.3,0,0,1-.03-.512A3.228,3.228,0,0,1,1.5,55.3L.52,55.089a4.091,4.091,0,0,0-.1.586,3.331,3.331,0,0,0,.036.73l.99-.141Zm1.361,2.01a2.84,2.84,0,0,1-1.362-2.011l-.99.144A3.84,3.84,0,0,0,2.31,59.14l.5-.867Zm.93.32a3.221,3.221,0,0,1-.454-.1,2.328,2.328,0,0,1-.474-.223l-.5.865a3.294,3.294,0,0,0,.674.312,4.229,4.229,0,0,0,.593.128l.163-.987Zm.323.055c-.123-.023-.23-.04-.323-.056l-.163.987c.093.015.191.032.3.053Zm4.327.3-4.383-.307-.07,1,4.383.307Zm.473,5.969q-.006-2.734-.008-5.47h-1q0,2.739.008,5.472Zm.007,5.47q0-2.737-.008-5.47l-1,0q.006,2.734.008,5.469h1Zm1.638,5.17a9.329,9.329,0,0,1-1.638-5.173l-1,.008a10.327,10.327,0,0,0,1.816,5.735l.822-.57Zm8.633,3.864a9.34,9.34,0,0,1-8.634-3.864l-.821.57a10.336,10.336,0,0,0,9.574,4.287l-.119-.993Zm9.36-1.638q-4.638,1.05-9.363,1.638l.125.993q4.768-.594,9.46-1.656Zm.22-.05-.212.048.206.978c.082-.017.163-.036.237-.053l-.23-.974Zm.237-.055-.236.054.23.974c.076-.018.145-.035.212-.049Zm.09-.02-.1.022.222.975.095-.021-.22-.976Zm.423-.1c-.139.036-.278.067-.423.1l.22.976c.142-.032.3-.068.456-.109l-.253-.967Zm.626,9.249V78.043h-1v8.765Zm.6,1.727a3.34,3.34,0,0,1-.6-1.78l-1,.106a4.33,4.33,0,0,0,.817,2.3l.78-.627Zm4.335,0a2.87,2.87,0,0,1-4.335,0l-.78.625a3.868,3.868,0,0,0,5.9,0Zm.611-1.787a3.445,3.445,0,0,1-.612,1.788l.783.622a4.424,4.424,0,0,0,.822-2.294l-.993-.116Zm0-12.972v13.03h1V73.778Zm-.033-.286c.01.1.02.213.036.345l.993-.118q-.019-.162-.034-.325l-1,.1Zm-.26-.954a2.24,2.24,0,0,1,.194.487,3.457,3.457,0,0,1,.066.467l.995-.1a4.135,4.135,0,0,0-.09-.608,3.225,3.225,0,0,0-.273-.7l-.892.452Zm-1.993-1.492a2.83,2.83,0,0,1,1.992,1.49l.894-.447a3.83,3.83,0,0,0-2.706-2.026Zm-.992.018A3.159,3.159,0,0,1,32.827,71a2.217,2.217,0,0,1,.523.05l.184-.983a3.206,3.206,0,0,0-.75-.066,4.19,4.19,0,0,0-.61.085l.186.982Zm-.34.062c.13-.022.243-.043.34-.062l-.187-.982c-.1.018-.2.038-.32.058Zm-.039.017.1-.032-.294-.956-.1.032ZM18.431,73.92a83.594,83.594,0,0,0,13.544-2.776l-.282-.959a82.6,82.6,0,0,1-13.382,2.742l.12.993ZM14.4,70.382a3.725,3.725,0,0,0,4.024,3.538l-.111-.993A2.728,2.728,0,0,1,15.4,70.364Zm-.018-8.4c0,2.791-.006,5.587.018,8.392l1-.008c-.024-2.8-.02-5.59-.018-8.383h-1Zm0-2.789q0,1.4,0,2.79h1l0-2.79Zm.017-.96c-.008.314-.017.638-.017.96h1c0-.306.008-.616.017-.934l-1-.027Zm-.572-3.51a3.08,3.08,0,0,1,.535,1.514,13.819,13.819,0,0,1,.037,1.995l1,.027a14.717,14.717,0,0,0-.044-2.142,4.059,4.059,0,0,0-.727-1.992l-.8.6Zm-1.491-1.01a3.457,3.457,0,0,1,1.493,1.013l.8-.6A4.427,4.427,0,0,0,12.72,52.79l-.38.925Zm-.594-.1.694.126.179-.984-.694-.126Zm-3.2-.222,3.255.228.07-1L8.616,52.4l-.07,1ZM13.5,36.1,8.106,52.744l.95.308,5.392-16.64Zm1.149-4.735A32.9,32.9,0,0,1,13.5,36.1l.953.307a33.9,33.9,0,0,0,1.184-4.88l-.987-.163Zm.025-.174q-.019.1-.03.206l1,.1c0-.039.01-.08.018-.127l-.984-.179Zm.048-.31c-.016.11-.03.21-.048.312l.984.176c.022-.12.038-.236.054-.343l-.99-.144Zm.054-.342c-.021.12-.038.236-.054.343l.99.144c.016-.11.03-.21.049-.312Zm6.664-14.23a29.135,29.135,0,0,0-6.665,14.236l.987.163A28.134,28.134,0,0,1,22.2,16.966Zm28.57-9.59a29.884,29.884,0,0,0-28.57,9.59l.758.653A28.88,28.88,0,0,1,49.794,7.7l.213-.977ZM72.123,27.9A29.751,29.751,0,0,0,50.006,6.724l-.212.977A28.75,28.75,0,0,1,71.156,28.158l.967-.257ZM69.557,49.367A29.827,29.827,0,0,0,72.123,27.9l-.967.256a28.828,28.828,0,0,1-2.479,20.736l.88.474ZM66.18,62.185A27.184,27.184,0,0,1,69.556,49.37l-.877-.48a28.184,28.184,0,0,0-3.5,13.292Zm0,11.617V62.183h-1V73.8Zm.025.224c-.007-.087-.015-.189-.029-.29l-.991.132c.01.072.016.149.023.24l1-.082Zm.05.388a2.735,2.735,0,0,1-.05-.388l-1,.083a3.714,3.714,0,0,0,.071.532l.974-.228Zm1.5,1.878a2.8,2.8,0,0,1-1.5-1.874l-.976.218a3.8,3.8,0,0,0,2.037,2.556Zm3.364-.768a2.836,2.836,0,0,1-3.363.768l-.436.9A3.837,3.837,0,0,0,71.9,76.147l-.783-.623Zm.6-1.783a3.438,3.438,0,0,1-.607,1.787l.789.615a4.409,4.409,0,0,0,.812-2.3l-.994-.106Zm0-1.019v1.072h1V72.722Zm0-3.537q0,1.77,0,3.537h1q0-1.77,0-3.538Zm0-7.083c-.01,2.367-.007,4.726,0,7.083h1c0-2.358-.007-4.714,0-7.077Zm2.342-9.426A20.761,20.761,0,0,0,71.715,62.1l1,.005a19.762,19.762,0,0,1,2.23-8.971Zm.065-.118q-.021.042-.045.083l.848.53c.037-.06.067-.12.087-.158l-.89-.455Zm.052-.1-.052.1.89.455.036-.07Zm3.669-9.692a36.352,36.352,0,0,1-3.67,9.695l.877.48a37.336,37.336,0,0,0,3.77-9.964l-.977-.21Zm-5.72-27.649a35.207,35.207,0,0,1,5.72,27.65l.977.21a36.208,36.208,0,0,0-5.883-28.441l-.813.581Zm-23.7,2.728L27.746,35.686l.654.757L49.08,18.6l-.654-.758Zm2.96,2a1.85,1.85,0,0,0-2.96-2l.654.757a.85.85,0,0,1,1.36.918ZM48.228,29.1l3.158-9.261-.947-.323-3.158,9.261Zm.8,1.125a.85.85,0,0,1-.8-1.125l-.947-.323a1.85,1.85,0,0,0,1.751,2.448Zm8.965,0H49.032v1H58Zm1.22,3.24A1.85,1.85,0,0,0,58,30.229v1a.849.849,0,0,1,.56,1.488ZM35.935,53.9,59.217,33.469l-.66-.752L35.275,53.15Zm-2.914-2.135A1.85,1.85,0,0,0,35.935,53.9l-.66-.752a.849.849,0,0,1-1.338-.98Zm5.113-11.638L33.021,51.767l.916.4L39.05,40.531Zm-.778-1.192a.85.85,0,0,1,.778,1.192l.916.4a1.85,1.85,0,0,0-1.694-2.594Zm-8.4,0h8.4v-1h-8.4Zm-1.209-3.25a1.85,1.85,0,0,0,1.209,3.25v-1a.85.85,0,0,1-.555-1.494l-.654-.757Z" fill="#8cefe9"/>
  </g>
</svg>
