<svg xmlns="http://www.w3.org/2000/svg" width="78.08" height="87.921" viewBox="0 0 78.08 87.921">
  <g id="icon_1" transform="translate(-0.959 -0.595)">
    <path id="Path_5" data-name="Path 5" d="M16.983,50.587c.077.007.162.015.258.026H62.752c.062-.006.124-.01.187-.014a2.579,2.579,0,0,0,.43-.054,2.852,2.852,0,0,0,1.89-1.529,2.29,2.29,0,0,0,.248-.962c.007-.078.015-.163.026-.262V3.91q-.009-.095-.015-.19a2.768,2.768,0,0,0-.052-.435,3.072,3.072,0,0,0-2.09-2.121c-.1-.01-.19-.02-.288-.032L62.759,1.1H17.248l-.258.026a2.2,2.2,0,0,0-.948.253,2.83,2.83,0,0,0-1.3,1.318,3.775,3.775,0,0,0-.275,1.224V47.8c.006.063.01.126.015.19a2.884,2.884,0,0,0,.052.436,2.835,2.835,0,0,0,1.5,1.91,2.226,2.226,0,0,0,.948.252ZM59.972,6.73V22.35l.006-.007L49.6,34.843a3.455,3.455,0,0,1-3.457,1.143,3.668,3.668,0,0,1-1.9-1.244s.14.156-.047-.055a8.948,8.948,0,0,0-13.656.15l-8.41,10.135h-2.11V6.73h39.95ZM53.827,38.513Q56.9,34.805,59.972,31.1v13.86H29.4l5.381-6.485.027-.03.027-.031a3.573,3.573,0,0,1,5.307.15l-.033-.041a9,9,0,0,0,13.71-.007l.006-.008ZM37.745,12.338a9.382,9.382,0,0,0-5.213-1.666l.014.014h-.114a9.28,9.28,0,0,0-5.7,2.032c-.281.231-.636.571-.636.571a9.151,9.151,0,0,0-1.22,1.475s-.274.429-.442.741c-.027.048-.181.354-.3.6l-.188.463-.127.373c-.107.34-.208.762-.208.762,0,.026-.008.028-.012.03s-.033.022-.135.806c-.007.068-.067.8-.067.8l0,.085a5.332,5.332,0,0,0,.019.846c0,.04.02.34.053.578a.405.405,0,0,1,0,.055,4.566,4.566,0,0,0,.158.842s.167.619.18.66l.054.156.114.313a.28.28,0,0,1,.017.052,4.1,4.1,0,0,0,.291.654c.04.075.57,1,.57,1,.188.3.442.618.442.618a11.4,11.4,0,0,0,.8.89,8.726,8.726,0,0,0,1.253,1.027,9.265,9.265,0,0,0,9.34.557c.436-.224.892-.53.892-.53a10.59,10.59,0,0,0,1.22-.979s.267-.265.448-.462c.02-.02.039-.042.057-.064s.037-.044.057-.065l.174-.21L40,24.75l.382-.6q.094-.165.18-.334s.175-.346.289-.6c0,0,.093-.225.22-.565,0,0,.1-.285.162-.5,0,0,.093-.34.093-.36a10.3,10.3,0,0,0,.235-1.536,11.385,11.385,0,0,0-.054-1.74,9.88,9.88,0,0,0-.254-1.238s-.074-.251-.181-.57l-.208-.524a9.7,9.7,0,0,0-.516-1.02l-.449-.686-.05-.07q-.168-.233-.352-.453l-.18-.211c-.282-.313-.59-.6-.59-.6a10.17,10.17,0,0,0-.979-.8ZM29.9,17.375a3.607,3.607,0,0,1,2.553-1.06h-.007a3.565,3.565,0,0,1,2.667,1.127,3.376,3.376,0,0,1,.308,4.072c-1.89,2.74-5.9,1.319-6.426-1.217a3.16,3.16,0,0,1-.007-1.2.186.186,0,0,1,.007-.04,3.308,3.308,0,0,1,.851-1.625l.054-.055ZM75.12,55.449s-.448-.278-.789-.448l-.008.007c-.139-.07-.209-.1-.209-.1a7.2,7.2,0,0,0-6.607.371c-2.249,1.337-4.481,2.7-6.714,4.065q-1.767,1.08-3.538,2.156a.913.913,0,0,1-.045-.125,4.229,4.229,0,0,0-.272-.548,8,8,0,0,0-.584-1.037,2.227,2.227,0,0,1-.407-.41l-.572-.6a7.494,7.494,0,0,0-.944-.758l-.557-.34a8,8,0,0,0-2.677-.921c-2.84-.472-5.695-.875-8.566-1.169-7.721-.8-15.637-1.021-22.267,2.167-6.33,3.04-11.9,7.257-17.425,11.59-.007.008-.294.232-.294.232-.048.046-.1.092-.148.137a3.156,3.156,0,0,0-.362.366,3.32,3.32,0,0,0,.48,4.519,3.535,3.535,0,0,0,3.4.4l.611-.379.279-.217C11.884,70.5,17,66.637,22.631,63.806a20.24,20.24,0,0,1,7.35-2.128c6.546-.6,13.177.286,19.691,1.346l.207.033a2.317,2.317,0,0,1,.938.284,1.184,1.184,0,0,1,.589,1.022l-13.2,2.607c-.069.02-.138.04-.207.058a2.9,2.9,0,0,0-.482.159,3.319,3.319,0,0,0-1.625,4.24,3.543,3.543,0,0,0,2.84,1.9l.72-.062L53.8,70.428h.047a9.766,9.766,0,0,0,3.025-1.175q2.407-1.461,4.815-2.928,4.554-2.772,9.12-5.53c.68-.386,1.4.465,1.292,1.154l0,.03a.781.781,0,0,1-.1.271.685.685,0,0,0-.032.078c-.028.077-.046.124-.293.317q-6.5,4.763-13.026,9.47l-3.995,2.894a11.16,11.16,0,0,1-5.633,1.98q-6.738.366-13.476.71-5.055.263-10.107.529a11.133,11.133,0,0,0-6.074,2.236c-.239.18-.484.358-.729.535-1.23.89-2.443,1.768-2.753,3.04a3.311,3.311,0,0,0,3.072,3.977,3.853,3.853,0,0,0,2.011-.674L23.2,85.609a4.651,4.651,0,0,1,2.546-.967c4.858-.32,9.72-.554,14.58-.788,3.02-.146,6.039-.292,9.057-.458a17.373,17.373,0,0,0,8.155-2.6c.434-.27.906-.61.906-.61q5.833-4.2,11.63-8.441,2.683-1.955,5.368-3.908l.039-.023a8.057,8.057,0,0,0,.936-.82s.464-.527.519-.6c0,0,.061-.085.178-.24,0,0,.054-.077.162-.24a8.17,8.17,0,0,0,.565-1.006l.278-.688.217-.742a8.582,8.582,0,0,0,.178-1.091l.023-.79s0-.046-.015-.24v-.131a3.066,3.066,0,0,0-.1-.79s-.07-.355-.086-.41a7.706,7.706,0,0,0-.588-1.624s-.255-.48-.457-.79c0,0-.085-.13-.3-.425,0,0-.147-.185-.263-.325a3.224,3.224,0,0,0-.285-.315l-.017-.017a7.9,7.9,0,0,0-1.308-1.084Z" fill="#8cefe9" fill-rule="evenodd"/>
    <path id="Path_6" data-name="Path 6" d="M62.752,50.613v.5h.026l.025,0-.05-.5Zm-45.51,0-.057.5.028,0h.028v-.5Zm45.7-.014.035.5Zm.43-.054-.114-.486h0l.115.486Zm1.89-1.529.45.216v0l-.452-.214Zm.248-.962.5.046Zm.026-.262.5.055,0-.027v-.028Zm0-43.883h.5V3.884l0-.024Zm-.015-.19.5-.033Zm-.052-.435-.488.109v0Zm-2.09-2.121.167-.471-.057-.02-.06-.007Zm-.288-.032.058-.5Zm-.329-.036.049-.5-.025,0h-.024Zm-45.511,0v-.5H17.22l-.028,0Zm-.258.026-.047-.5Zm-.948.253-.22-.45Zm-1.3,1.318-.452-.214Zm-.275,1.224-.5-.056,0,.028v.028h.5Zm0,43.883h-.5v.025l0,.024Zm.015.19.5-.033-.5.033Zm.052.436.488-.108v0l-.488.112Zm1.5,1.91.219-.45h0Zm.948.252.048-.5-.047.5ZM59.972,22.35h-.5v1.218l.855-.867-.355-.35Zm0-15.62h.5v-.5h-.5Zm.006,15.613.385.32-.74-.671.355.351ZM49.6,34.843l-.384-.319.385.32Zm-3.457,1.143.12-.486h0l-.12.486Zm-1.9-1.244.372-.335-.754.658Zm-.047-.055-.376.33,0,0Zm-2.205-1.842-.256.43h0ZM30.542,34.837l-.383-.322,0,0Zm-8.41,10.135v.5h.235l.15-.181-.384-.32Zm-2.11,0h-.5v.5h.5Zm0-38.242v-.5h-.5v.5Zm39.95,24.375h.5V29.721l-.885,1.064.384.32Zm-6.145,7.408-.385-.32Zm6.145,6.452v.5h.5v-.5Zm-30.57,0-.384-.32-.68.82H29.4v-.5Zm5.381-6.485-.355-.35-.015.014-.014.017.384.32Zm.054-.061.356.351.012-.012.011-.013Zm5.307.15-.386.317.773-.635-.387.318Zm-.033-.041.382-.322-.769.64Zm13.71-.007.381.323,0,0-.385-.319ZM32.531,10.672l0-.5-1.207-.009.847.86.356-.35Zm5.213,1.666.29-.408,0,0-.287.41Zm-5.2-1.652v.5h1.195l-.838-.851-.357.35Zm-.113,0v-.5h-.005Zm-5.7,2.032-.314-.388,0,0,.317.386Zm-.636.571-.346-.361,0,0,.348.36Zm-1.22,1.475-.415-.278-.006.008.421.27Zm-.442.741.436.246,0-.01Zm-.3.6-.453-.21-.006.011,0,.012Zm-.188.463-.463-.19,0,.014,0,.014.473.162Zm-.127.373-.473-.16,0,.01Zm-.208.762-.486-.116,0,.012,0,.013.491.09Zm-.012.03.269.423-.269-.422Zm-.135.806-.5-.064v.007l0,.008.5.049Zm-.067.8-.5-.041v.02l.5.02Zm0,.085-.5-.034Zm.019.846h.5v-.017l0-.017Zm.053.578.5-.054v-.008l0-.008-.5.07Zm0,.055-.5,0Zm.158.842-.488.109,0,.01,0,.012.483-.13Zm.18.66-.474.156,0,.006.473-.163Zm.054.156-.473.162,0,.009.47-.171Zm.114.313-.47.17,0,.013Zm.017.052-.483.127Zm.291.654-.449.22,0,.009,0,.008Zm.57,1-.434.248,0,.009.006.008Zm.442.618.4-.305-.006-.006-.39.311Zm.8.89-.354.354.354-.353Zm1.253,1.027-.282.413h0l.28-.413Zm9.34.557-.228-.444h0l.23.444Zm.892-.53.278.415,0,0Zm1.22-.979.339.367.006,0,.006-.006-.352-.356Zm.448-.462-.356-.35-.006.006-.006.006Zm.057-.064-.384-.32Zm.057-.065.356.351.015-.015.014-.017Zm.174-.21.386.318.007-.008.006-.01-.4-.3ZM40,24.75l.4.3.012-.017.011-.017Zm.382-.6.422.267.007-.011.006-.011Zm.122-.225-.442-.233Zm.059-.109.437.243L41,24.045l0-.009-.447-.225Zm.288-.6.457.2,0-.009-.461-.192Zm.22-.565.47.176,0-.01-.471-.166Zm.162-.5.48.138,0,0-.482-.133Zm.093-.36-.485-.12-.015.06v.06h.5Zm.235-1.536.5.033-.5-.033ZM41.5,18.51l.5-.058v-.007l0-.007-.495.072Zm-.254-1.238.481-.134,0-.006-.48.14Zm-.181-.57.474-.16-.005-.012-.005-.013-.464.184Zm-.208-.524.465-.184,0-.01-.46.194ZM40.5,15.43l-.44.237.005.01.005.008.43-.255Zm-.154-.271.432-.252L40.77,14.9l-.007-.011-.419.274Zm-.449-.687.419-.274-.007-.01-.008-.01-.4.294Zm-.05-.07.4-.293-.406.293Zm-.352-.453.388-.316-.008-.01Zm-.18-.211.379-.326-.008-.009-.372.335Zm-.59-.6.344-.363,0,0-.341.366Zm-6.272,3.181,0,.5,0-1ZM29.9,17.374l.356.352-.356-.351Zm2.546-1.06,0-.5,0,1Zm2.667,1.128.37-.337,0,0-.368.34Zm.308,4.072-.411-.284ZM28.993,20.3l-.49.1v0Zm-.007-1.2.492.092.008-.046v-.046Zm.007-.04.486.12ZM29,19.013l-.49-.1-.01.052v.053Zm.844-1.584-.356-.351-.006.006.362.345ZM74.33,55l.224-.448-.323-.16-.254.254Zm.79.448.274-.418-.011-.006-.264.424Zm-.8-.44-.223.447.322.16.255-.254-.354-.354Zm-.209-.1-.208.454,0,0,.2-.457Zm-6.607.371.255.43,0,0-.258-.428Zm-6.714,4.065.26.427ZM57.254,61.5l-.462.19.222.54.5-.3Zm-.045-.125.483-.129-.483.13Zm-.272-.548.444-.23-.006-.01-.438.24Zm-.584-1.037-.333.373Zm-.407-.41.38-.325-.009-.011-.01-.01-.36.346Zm-.572-.6.36-.346-.006-.007-.006-.005Zm-.944-.758.286-.41-.013-.009-.012-.008-.261.427Zm-.557-.34.26-.427-.006,0-.007,0-.247.434ZM51.2,56.765l-.082.493ZM42.63,55.6l-.05.5ZM20.363,57.763l.216.45ZM2.938,69.353,2.63,68.96l-.024.018L2.585,69Zm-.294.232-.308-.393-.02.015-.017.017Zm-.148.137-.336-.37Zm-.362.366.389.314,0,0-.392-.31Zm.48,4.519L2.3,75l.313-.39Zm3.4.4.163.473.053-.018.048-.03Zm.611-.379.264.425.022-.014.021-.016-.307-.395Zm.279-.217.307.395,0,0-.31-.393ZM22.63,63.806l-.224-.448Zm7.35-2.128.044.5h0Zm19.691,1.346.086-.493h-.005l-.08.493Zm.207.033-.077.494Zm.938.284.28-.415h0Zm.589,1.022.1.49.426-.084-.023-.433-.5.027ZM38.2,66.97l-.1-.49-.024,0-.023.007.144.48ZM38,67.028l-.13-.483Zm-.482.159.2.457.008,0-.21-.453Zm-1.625,4.24-.456.2v0Zm2.84,1.9-.07.5.056.008.057,0-.043-.5Zm.72-.062.042.5.028,0,.027,0-.1-.49Zm14.344-2.84v-.5h-.049l-.048.01Zm.047,0v.5h.05l.05-.01Zm3.025-1.175.256.43,0,0Zm4.814-2.927.26.427ZM70.8,60.8l-.246-.435-.01.006.257.429Zm1.293,1.153.492.09,0-.013-.494-.077Zm0,.03.493.083-.493-.084Zm-.1.271.448.224Zm-.032.078-.47-.172Zm-.293.317.3.4.006,0,.006-.005-.308-.394Zm-13.025,9.47.293.4Zm-4,2.894.286.41.007,0-.293-.4Zm-5.633,1.98.027.5h0l-.031-.5Zm-13.476.71-.026-.5Zm-10.107.529-.027-.5h0Zm-6.074,2.236.3.4h0ZM18.628,81l.293.4Zm-2.753,3.04-.486-.119.486.118Zm3.072,3.977-.008.5h0l.006-.5Zm2.011-.674.26.428.023-.015.023-.017-.306-.4ZM23.2,85.609l.306.4h0l-.308-.395Zm2.546-.967-.033-.5.033.5Zm14.58-.788-.025-.5.024.5Zm9.057-.458.028.5h0Zm8.155-2.6-.265-.423.265.424Zm.906-.61-.293-.406.293.4Zm11.63-8.44-.294-.4.294.4Zm5.368-3.91-.257-.428-.019.011-.018.013.294.4Zm.039-.022.257.428.02-.011.017-.013Zm.936-.82.354.353.01-.011.011-.012-.375-.33Zm.519-.6.394.307,0-.006,0-.006-.4-.294Zm.072-.1.4.3Zm.106-.141.4.3,0-.007,0-.006-.41-.287Zm.162-.24.416.277Zm.194-.31.425.263,0-.007-.43-.256Zm.37-.7.45.219.008-.016.006-.015-.463-.188Zm.28-.689.463.188.01-.023.006-.025-.48-.14Zm.216-.742.48.14,0-.012,0-.012-.486-.116Zm.178-1.091.5.053,0-.02V62.4Zm.023-.79.5.015V61.6h-.5Zm-.015-.24h-.5v.04Zm0-.131-.122-.485-.378.1v.39Zm-.1-.79.492-.082,0-.013-.49.1Zm-.086-.41-.487.116,0,.011,0,.011.481-.137ZM77.75,58.4l.448-.221,0-.007,0-.007Zm-.457-.79-.42.272h0l.42-.272Zm-.3-.425.4-.3,0-.007,0-.007-.392.31Zm-.263-.325-.394.31,0,.005,0,.005.384-.32Zm-.285-.315-.36.347Zm-.017-.017.36-.347,0,0-.357.35Zm-13.675-6.42H17.242v1h45.51Zm.153-.013c-.062,0-.133.009-.2.016l.1.995c.053-.005.107-.01.172-.014l-.07-1Zm.349-.041a2.192,2.192,0,0,1-.35.04l.07,1a3.089,3.089,0,0,0,.51-.065l-.23-.973Zm1.554-1.26a2.353,2.353,0,0,1-1.553,1.26l.227.973a3.352,3.352,0,0,0,2.227-1.8l-.9-.432Zm.2-.791a2.9,2.9,0,0,1-.052.391,1.968,1.968,0,0,1-.15.4l.9.428a2.929,2.929,0,0,0,.222-.6A3.824,3.824,0,0,0,66,48.1l-1-.092Zm.027-.27-.027.27,1,.092.025-.253Zm0-43.83V47.792h1V3.91h-1Zm-.014-.155.016.2,1-.1q-.008-.087-.014-.174l-1,.067Zm-.04-.357a2.326,2.326,0,0,1,.04.357l1-.067a3.2,3.2,0,0,0-.064-.514ZM63.208,1.634a2.576,2.576,0,0,1,1.77,1.759l.976-.219A3.57,3.57,0,0,0,63.544.692l-.336.942Zm-.177-.006.294.032.1-1-.28-.03-.114.993Zm-.32-.036c.1.01.21.023.32.036l.115-.994L62.808.6l-.1,1Zm-45.463,0H62.759v-1H17.248v1Zm-.21.024.266-.027L17.192.6l-.25.025.1,1Zm-.777.2a1.827,1.827,0,0,1,.393-.152,2.726,2.726,0,0,1,.384-.052l-.1-1a3.811,3.811,0,0,0-.52.075,2.86,2.86,0,0,0-.6.226l.439.9ZM15.193,2.907a2.33,2.33,0,0,1,1.068-1.084l-.439-.9A3.33,3.33,0,0,0,14.29,2.478Zm-.229,1.064a3.3,3.3,0,0,1,.23-1.064l-.9-.43a4.242,4.242,0,0,0-.32,1.383Zm0,43.828V3.916h-1V47.8h1Zm.014.157q-.006-.1-.016-.206l-1,.1c.006.053.01.11.014.175l1-.067Zm.04.357a2.344,2.344,0,0,1-.04-.357l-1,.067a3.217,3.217,0,0,0,.064.514l.974-.224Zm1.232,1.572a2.338,2.338,0,0,1-1.23-1.568l-.977.215a3.339,3.339,0,0,0,1.771,2.253l.436-.9Zm.778.2a2.756,2.756,0,0,1-.383-.052,1.882,1.882,0,0,1-.394-.152l-.438.9a2.918,2.918,0,0,0,.6.225,3.641,3.641,0,0,0,.52.075l.095-1Zm.266.028c-.1-.012-.19-.02-.266-.028l-.095,1,.25.025ZM60.471,22.35V6.73h-1V22.35Zm-.849-.358L59.616,22l.711.7.007-.006-.712-.7ZM49.99,35.162l10.373-12.5-.77-.638-10.372,12.5.77.639Zm-3.963,1.309a3.955,3.955,0,0,0,3.963-1.308l-.77-.638a2.955,2.955,0,0,1-2.951.975l-.242.97Zm-2.164-1.406a4.165,4.165,0,0,0,2.166,1.406l.238-.971a3.16,3.16,0,0,1-1.64-1.081l-.764.646Zm-.038-.045.084.1c.01.012.005.006,0,0l-.006-.007-.015-.02-.017-.028a.437.437,0,0,1-.047-.1.9.9,0,0,1-.02-.237.833.833,0,0,1,.436-.42.9.9,0,0,1,.26.04.5.5,0,0,1,.117.072l.017.016.028.027-.025-.027-.013-.015,0,0h0l-.372.334-.372.334,0,0q.029.034.06.066l.01.01.014.013.017.015c.005,0,.022.018.046.034s.046.026.07.038a.917.917,0,0,0,.261.04.835.835,0,0,0,.437-.42.9.9,0,0,0-.02-.237.6.6,0,0,0-.047-.1L44.7,34.51a.287.287,0,0,0-.022-.028l-.023-.028-.089-.1-.746.666Zm-2.087-1.745a8.639,8.639,0,0,1,2.084,1.742l.752-.659a9.638,9.638,0,0,0-2.325-1.943l-.51.86ZM30.925,35.16a8.631,8.631,0,0,1,10.812-1.885l.513-.858a9.63,9.63,0,0,0-12.09,2.1ZM22.517,45.29l8.41-10.135-.77-.639-8.41,10.135Zm-2.5.18h2.11v-1h-2.11Zm-.5-38.741V44.971h1V6.73h-1Zm40.45-.5H20.022v1h39.95Zm-.385,24.555q-3.074,3.7-6.144,7.408l.769.639q3.072-3.708,6.144-7.407l-.77-.64Zm.884,14.18V31.1h-1v13.86Zm-31.068.5H59.972v-1H29.4v1Zm5-7.3-5.38,6.485.769.638,5.38-6.484-.77-.64Zm.025-.029,0,.006h0l.009-.009.712.7c.028-.029.05-.056.057-.064l-.773-.635Zm.057-.064c-.028.029-.05.056-.057.064l.773.635,0-.005h0l-.008.009-.712-.7Zm6.049.183a4.072,4.072,0,0,0-6.072-.158l.758.652a3.075,3.075,0,0,1,4.542.141Zm-.806.594.034.04.773-.634-.034-.04ZM53.438,38.2a8.5,8.5,0,0,1-12.945.008l-.765.644A9.5,9.5,0,0,0,54.2,38.843Zm0,0-.007.008.77.638.007-.009ZM32.528,11.172a8.881,8.881,0,0,1,4.93,1.575l.574-.82a9.881,9.881,0,0,0-5.5-1.755l-.008,1Zm.374-.837-.014-.014-.712.7.013.014Zm-.47.85h.113v-1h-.113Zm-5.388,1.922a8.781,8.781,0,0,1,5.393-1.921l-.01-1a9.783,9.783,0,0,0-6.012,2.144l.629.777Zm-.951.182.345.361h0l0,0,.053-.05q.267-.256.551-.492l-.634-.773q-.335.277-.648.58l-.012.011,0,0h0l.345.361Zm-.8,1.754a8.634,8.634,0,0,1,1.152-1.395l-.7-.718a9.658,9.658,0,0,0-1.287,1.556l.83.557Zm-.417.7q.178-.326.379-.638l.032-.051.01-.017h0l-.42-.27-.422-.27-.012.019-.035.056q-.22.342-.414.7l.88.471Zm-.283.573q.13-.276.27-.548l.008-.015-.872-.491q-.163.312-.312.632Zm-.177.44.124-.306.046-.113.013-.032,0-.01h0l-.463-.188-.463-.187,0,0,0,.009q-.031.072-.059.145l-.124.3.927.377Zm-.117.347.127-.374-.947-.323-.127.374Zm-.682.6.487.116v0l0-.013.012-.05q.083-.332.182-.66l-.954-.3q-.111.357-.2.72l-.013.055,0,.015v0l.485.117Zm.257.453,0,0,0,0a.5.5,0,0,0,.183-.211.614.614,0,0,0,.045-.146l-.983-.182,0-.023a.486.486,0,0,1,.121-.208.5.5,0,0,1,.085-.07l.537.845Zm.092.447c.05-.392.08-.578.1-.664.01-.049.01-.041,0-.015a.451.451,0,0,1-.139.195.394.394,0,0,1-.05.037l-.536-.844a.517.517,0,0,0-.214.27,1.086,1.086,0,0,0-.043.17c-.023.118-.055.33-.106.723l.992.128Zm-.563.738.5.04h0v-.006l0-.024.007-.084.021-.26.036-.418-1-.1c0,.039-.022.246-.037.434l-.022.26-.007.084,0,.024V19.3l.5.042Zm.494.12.006-.1-1-.04c0,.02,0,.041,0,.07l1,.07Zm.018.777a4.9,4.9,0,0,1-.018-.778l-1-.068a5.971,5.971,0,0,0,.019.915l1-.07Zm.05.542q-.022-.167-.036-.335c-.01-.114-.012-.177-.012-.173h-1c0,.073.023.4.058.648l.99-.14Zm.008.129a.932.932,0,0,0-.006-.113l-.994.108v0Zm.146.73c-.08-.358-.117-.544-.134-.645q-.007-.04-.012-.08v0l-1-.008a4.636,4.636,0,0,0,.17.955l.976-.217Zm.168.611-.027-.1q-.071-.255-.14-.51l-.005-.02v0h0l-.483.13-.483.13v0l0,0,.025.09.162.588.95-.313Zm.051.15-.053-.156-.946.325.053.156.946-.324Zm.111.3-.114-.312-.94.342.115.313.94-.343Zm.03.1a.732.732,0,0,0-.035-.109l-.93.367v0l0,0s0-.006,0,0l.968-.254Zm.258.562q-.119-.239-.227-.483a.358.358,0,0,1-.03-.08l-.967.255a4.3,4.3,0,0,0,.325.747l.9-.439Zm.12,1.219.434-.249,0,0,0-.007-.017-.03-.06-.1-.187-.326-.193-.34-.07-.121-.021-.04-.007-.011,0,0-.88.473q.243.434.492.865l.06.106.017.03,0,.007v0h0l.434-.248Zm.442.618.391-.311s0,0,0,0l-.007-.01-.029-.037a6.327,6.327,0,0,1-.371-.524l-.848.532a7.262,7.262,0,0,0,.428.605l.034.043.013.016.391-.31Zm.8.89.353-.353,0,0-.015-.015q-.129-.129-.252-.263-.254-.269-.483-.56l-.793.61c.169.22.38.456.545.632q.134.143.271.283l.017.017,0,0,0,0,.354-.353Zm1.534.614a8.234,8.234,0,0,1-1.181-.968l-.706.709a9.263,9.263,0,0,0,1.324,1.085Zm8.83.526a8.765,8.765,0,0,1-8.83-.527l-.562.828a9.767,9.767,0,0,0,9.851.587l-.46-.888Zm1.12-.086-.278-.415,0,0-.068.044c-.047.03-.114.074-.195.124q-.281.176-.574.33l.458.889a9.65,9.65,0,0,0,.917-.544l.017-.011,0,0h0l-.278-.416Zm.88-1.346a9.954,9.954,0,0,1-1.16.933l.562.826a11.031,11.031,0,0,0,1.278-1.025l-.68-.734Zm.42-.433q-.189.205-.388.4l-.032.032-.009.008,0,0,.351.355.352.356h0l0,0,.01-.009.033-.033q.213-.214.42-.434l-.737-.676Zm.042-.047-.029.034.712.7c.037-.037.069-.076.085-.095l-.768-.64ZM39,25.221c-.037.038-.069.076-.085.095l.768.64.03-.033-.713-.7Zm.145-.178-.174.21.77.638.175-.211Zm.449-.595-.463.612.8.6.463-.612Zm.358-.57-.382.6.846.534.381-.6Zm.1-.191c-.026.05-.054.1-.116.212l.871.491c.068-.12.1-.183.13-.237Zm.063-.118q-.032.059-.063.118l.884.466.054-.1-.875-.485Zm.268-.564q-.128.287-.27.568l-.005.01,0,0h0l.447.224.446.225h0l0,0,.006-.012.021-.045q.139-.282.27-.567l-.916-.4Zm.21-.538q-.1.256-.2.51l-.012.028,0,.007h0l.46.194.462.192v0l0-.009.013-.031.048-.119c.04-.1.1-.245.162-.42l-.936-.35Zm.149-.458c-.027.094-.065.21-.1.306-.015.047-.03.088-.04.116l-.01.034,0,.009v0l.47.166.472.166,0,0,0-.01.013-.038q.081-.235.152-.473l-.961-.275Zm.074-.223a.536.536,0,0,1,.005-.068q0-.009,0-.018c0-.005,0-.007,0,0q-.019.074-.038.148c-.01.043-.022.085-.031.117l-.013.049v0h0l.482.133.482.133v0l0-.01.01-.04.034-.122q.024-.092.047-.184l.007-.032a.553.553,0,0,0,.01-.1h-1Zm.735-1.536-.5-.034v.007q-.005.059-.01.118-.016.17-.037.34a8.726,8.726,0,0,1-.174.985l.97.24a9.489,9.489,0,0,0,.2-1.1q.029-.239.049-.48l0-.03v-.01ZM41.5,18.51l-.5.057v.008l0,.028q.026.251.04.5a9.063,9.063,0,0,1,.007,1.11l1,.067a10.077,10.077,0,0,0-.007-1.237q-.017-.29-.047-.58l0-.01v0l-.5.057Zm-.736-1.1a9.4,9.4,0,0,1,.242,1.175l.99-.144a10.464,10.464,0,0,0-.269-1.3Zm-.173-.546q.085.254.163.511l.009.031,0,.008v0l.48-.14.48-.141v0l0-.01-.01-.034q-.082-.272-.173-.542l-.948.319Zm-.2-.5.208.523.93-.369-.208-.523-.93.369Zm-.327-.678s.047.088.118.23.149.305.214.458l.92-.39q-.177-.412-.391-.807l-.861.509Zm-.156-.275c.086.148.11.19.146.257l.88-.473q-.078-.145-.162-.287l-.864.5Zm-.435-.664.449.686.837-.547-.45-.687-.836.548Zm-.038-.052.052.072.808-.588-.05-.069-.81.585Zm-.334-.43c.207.254.26.327.334.43l.81-.585q-.175-.245-.368-.476Zm-.172-.2.18.21.76-.651-.181-.21-.76.65Zm-.21-.931-.344.363,0,0,.01.01.036.034q.265.257.514.53l.743-.669q-.29-.32-.6-.618l-.011-.01,0,0h0l-.344.362Zm-1.268-.388a9.609,9.609,0,0,1,.926.754l.683-.732a10.8,10.8,0,0,0-1.03-.837l-.58.815Zm-5.008,3.07a4.106,4.106,0,0,0-2.905,1.208l.712.7a3.107,3.107,0,0,1,2.2-.912l-.007-1Zm0,1h.007v-1h-.007Zm3.035.288a4.071,4.071,0,0,0-3.038-1.289l.006,1a3.072,3.072,0,0,1,2.3.967l.736-.677Zm.352,4.695a3.878,3.878,0,0,0-.35-4.693l-.74.674a2.878,2.878,0,0,1,.267,3.451ZM28.5,20.4a4.1,4.1,0,0,0,3.07,2.969A3.87,3.87,0,0,0,35.832,21.8l-.824-.568A2.868,2.868,0,0,1,31.82,22.4a3.1,3.1,0,0,1-2.336-2.2l-.98.2ZM28.5,19A3.66,3.66,0,0,0,28.5,20.4l.98-.2a2.662,2.662,0,0,1,0-1.01Zm.013-.068a.66.66,0,0,0-.022.16h1a.387.387,0,0,1-.006.07c0,.01,0,.018,0,.01Zm-.008.079a.382.382,0,0,1,.006-.07l0-.01.97.24a.607.607,0,0,0,.022-.16Zm.982-1.93a3.807,3.807,0,0,0-.971,1.826l.978.208a2.8,2.8,0,0,1,.717-1.343l-.724-.69Zm.06-.06-.054.055.712.7.054-.055ZM74.107,55.448q.347.177.677.383l.054.032.013.008,0,0,.264-.425.264-.424,0,0,0,0-.016-.01-.255-.153q-.271-.161-.552-.305l-.448.9Zm.569-.086.008-.008-.707-.707-.008.008Zm-.563-.454-.2.457h0l.007,0,.034.016c.032.015.08.038.147.072l.447-.9-.167-.081a.437.437,0,0,0-.044-.02l-.013-.007h0l-.2.457Zm-6.35.8a6.7,6.7,0,0,1,6.142-.346l.417-.909a7.7,7.7,0,0,0-7.074.4l.516.856Zm-6.71,4.063q3.342-2.051,6.708-4.062l-.51-.86c-2.252,1.34-4.487,2.7-6.72,4.068l.522.854Zm-3.54,2.156q1.773-1.074,3.54-2.156l-.522-.854Q58.764,60,56.995,61.072l.518.855Zm-.787-.423a1.243,1.243,0,0,0,.066.186l.924-.38q-.012-.03-.023-.06v0l-.966.258Zm-.234-.448c.132.254.194.377.226.441l.018.036-.01-.029.966-.258a.941.941,0,0,0-.077-.192q-.116-.229-.234-.457l-.889.459Zm-.472-.892c-.046-.041-.062-.091.027.072s.2.37.451.83l.877-.48c-.235-.43-.379-.7-.451-.832a1.21,1.21,0,0,0-.238-.337l-.666.746Zm-.454-.46a4.2,4.2,0,0,0,.337.362,1.172,1.172,0,0,0,.1.084l.017.014.666-.747q-.028-.025-.058-.047l-.01-.007-.037-.032a3.343,3.343,0,0,1-.255-.276l-.76.65Zm-.553-.574.573.6.72-.693-.572-.6-.72.692Zm-.87-.694a6.921,6.921,0,0,1,.882.706l.7-.716a8,8,0,0,0-1.006-.81l-.572.82Zm-.531-.324.557.34.522-.853-.558-.34Zm-2.5-.854a7.536,7.536,0,0,1,2.511.862l.495-.869a8.529,8.529,0,0,0-2.843-.98l-.163.987ZM42.58,56.094c2.858.292,5.7.693,8.534,1.164l.164-.987q-4.279-.72-8.6-1.172Zm-22,2.12c6.492-3.122,14.28-2.917,22-2.12l.1-.995c-7.725-.8-15.767-1.04-22.536,2.213l.433.9ZM3.246,69.746C8.771,65.412,14.3,61.227,20.578,58.212l-.433-.9C13.762,60.378,8.153,64.626,2.63,68.96l.617.787Zm-.6-.162.309.394,0,0,.01-.007L3,69.943l.1-.079.153-.121.009-.008.009-.008.023-.021L2.585,69l.022-.021.006-.006,0,0-.006,0L2.579,69l-.1.078-.1.078-.032.025-.011.01h0l.308.393Zm.188.508c.05-.045.1-.1.157-.146l-.69-.723-.139.128.672.74Zm-.306.306a2.575,2.575,0,0,1,.306-.306l-.672-.741a3.541,3.541,0,0,0-.418.426l.784.62Zm.4,3.819a2.822,2.822,0,0,1-.4-3.816l-.778-.628A3.818,3.818,0,0,0,2.3,75Zm2.92.318a3.041,3.041,0,0,1-2.92-.319L2.3,75a4.036,4.036,0,0,0,3.873.485l-.326-.946Zm.51-.33-.61.378.527.85.61-.38L6.357,74.2Zm.236-.187-.279.216.614.79.279-.217-.614-.79ZM22.4,63.358C16.722,66.215,11.573,70.1,6.59,74.019l.618.787c4.982-3.915,10.062-7.748,15.645-10.555l-.449-.893Zm7.531-2.18a20.765,20.765,0,0,0-7.53,2.18l.447.894a19.741,19.741,0,0,1,7.171-2.077l-.088-1ZM49.751,62.53c-6.518-1.06-13.2-1.953-19.817-1.351l.09,1c6.478-.59,13.054.282,19.566,1.342l.16-.987Zm.2.032c-.07-.01-.135-.02-.2-.032l-.17.986.214.034Zm1.139.362a2.78,2.78,0,0,0-1.14-.362l-.153.988a1.869,1.869,0,0,1,.738.206Zm.81,1.41a1.679,1.679,0,0,0-.809-1.409l-.557.83a.694.694,0,0,1,.367.634l1-.054ZM38.3,67.46l13.2-2.608-.194-.98-13.2,2.607.194.98Zm-.175.05c.068-.018.145-.039.221-.062l-.287-.958c-.06.018-.122.035-.192.054l.258.966Zm-.4.13a2.411,2.411,0,0,1,.4-.13l-.258-.966a3.37,3.37,0,0,0-.563.188l.42.907Zm-1.379,3.582a2.819,2.819,0,0,1,1.371-3.58l-.406-.913a3.819,3.819,0,0,0-1.879,4.9l.914-.406ZM38.8,72.834a3.047,3.047,0,0,1-2.454-1.614l-.911.411a4.04,4.04,0,0,0,3.225,2.193l.14-.99Zm.607-.065-.72.062.086,1,.72-.062ZM53.7,69.937l-14.345,2.84.195.98,14.344-2.839-.194-.98Zm.144-.01h-.047v1h.047Zm2.77-1.105a9.281,9.281,0,0,1-2.87,1.116l.2.98a10.263,10.263,0,0,0,3.18-1.237l-.51-.86ZM61.419,65.9q-2.406,1.464-4.812,2.926l.518.855q2.409-1.461,4.815-2.927l-.52-.854Zm9.124-5.532Q65.969,63.117,61.42,65.9l.52.854q4.552-2.777,9.119-5.529Zm2.044,1.66a1.689,1.689,0,0,0-.491-1.412,1.259,1.259,0,0,0-1.542-.254l.494.87c.085-.05.195-.054.342.092a.7.7,0,0,1,.21.548l.987.155Zm-.006.035,0-.024-.984-.179-.006.036Zm-.141.412a1.255,1.255,0,0,0,.14-.412l-.985-.167-.007.036a.733.733,0,0,1-.043.1l.895.447Zm-.01.026.007-.019,0-.007-.895-.447a.943.943,0,0,0-.054.129l.938.344Zm-.455.54a2.122,2.122,0,0,0,.3-.273.814.814,0,0,0,.152-.267l-.939-.344c-.008.022,0,.01,0,0a.194.194,0,0,1,.022-.034.329.329,0,0,1-.034.033q-.059.051-.121.1l.615.788Zm-13.04,9.48q6.522-4.722,13.028-9.472l-.591-.806Q64.875,67,58.348,71.709l.587.81Zm-4,2.894,4-2.894-.587-.81-4,2.894Zm-5.9,2.075a11.66,11.66,0,0,0,5.888-2.07l-.573-.82a10.66,10.66,0,0,1-5.377,1.892Zm-13.481.71q6.738-.351,13.477-.71l-.054-1q-6.738.364-13.475.709l.052,1Zm-10.107.528q5.053-.269,10.107-.529l-.052-1q-5.053.263-10.108.528l.053,1Zm-5.8,2.134a10.637,10.637,0,0,1,5.8-2.134l-.06-1a11.639,11.639,0,0,0-6.347,2.338l.607.794Zm-.739.543c.244-.176.494-.357.738-.542l-.6-.8q-.357.268-.72.528l.586.81Zm-2.56,2.753a3.047,3.047,0,0,1,.9-1.425A14.4,14.4,0,0,1,18.92,81.4l-.586-.81a15.313,15.313,0,0,0-1.78,1.426,4.043,4.043,0,0,0-1.166,1.9l.972.237Zm2.594,3.359a2.812,2.812,0,0,1-2.594-3.36l-.972-.236a3.809,3.809,0,0,0,3.55,4.6l.016-1Zm1.745-.6a3.381,3.381,0,0,1-1.748.6l-.01,1a4.343,4.343,0,0,0,2.275-.746l-.517-.855Zm2.2-1.7-2.244,1.733.611.791L23.507,86Zm2.817-1.07a5.15,5.15,0,0,0-2.819,1.07l.614.79a4.151,4.151,0,0,1,2.272-.863l-.067-1Zm14.59-.79c-4.86.234-9.726.47-14.59.79l.067,1c4.853-.32,9.71-.554,14.57-.788l-.048-1Zm9.054-.457c-3.017.166-6.035.311-9.055.457l.048,1c3.02-.146,6.041-.291,9.062-.457Zm7.917-2.524a16.885,16.885,0,0,1-7.92,2.524l.06,1a17.886,17.886,0,0,0,8.39-2.675l-.53-.847Zm1.17-.188-.292-.4h0l0,0-.015.01-.057.042c-.05.035-.12.085-.205.143-.17.117-.388.265-.6.395l.53.848q.433-.272.85-.57l.06-.044.017-.012,0,0h0l-.292-.406ZM69.781,71.34q-5.805,4.23-11.629,8.439l.585.811q5.835-4.2,11.633-8.442l-.59-.808Zm5.368-3.909q-2.685,1.953-5.368,3.909l.589.808q2.684-1.955,5.367-3.908Zm.076-.047-.039.023.514.857.04-.023Zm.84-.745a7.411,7.411,0,0,1-.877.77l.588.808a8.567,8.567,0,0,0,1-.871l-.707-.707Zm.477-.55-.024.03q-.116.138-.237.272l-.165.188-.053.06-.015.017,0,0h0l.374.331.375.331h0l0,0,.015-.017.054-.06q.234-.267.464-.537l-.79-.613ZM76.608,66l-.056.075-.014.02,0,0v0l.4.294.4.295h0l0,0q.032-.046.066-.09l-.8-.6Zm.107-.143c-.043.057-.08.105-.107.143l.8.6.1-.14-.8-.6Zm.146-.218q-.077.116-.156.23h0l.41.287.41.286h0l0,0,.009-.013.032-.046.125-.186-.832-.554Zm.61-.032-.426-.262,0,0,0,.009-.019.03-.058.1-.064.1-.033.051,0,0,.832.555q.091-.14.177-.282l.019-.03,0-.009v0Zm-.079-.915q-.16.338-.352.66l.86.51q.213-.356.391-.732Zm.265-.657-.279.689.927.375.279-.69Zm.2-.695-.217.742.96.28.217-.742-.96-.28Zm.16-1a8.15,8.15,0,0,1-.166,1.027l.972.233a9.184,9.184,0,0,0,.19-1.154l-1-.106Zm.021-.751-.023.789,1,.03.023-.79-1-.03Zm-.014-.185q.008.1.014.205h0V61.6h1v-.027l0-.048q-.006-.1-.015-.205Zm0-.172v.132h1v-.132Zm-.094-.706c.065.387.088.569.1.648,0,.043,0,.038,0,.012a.5.5,0,0,1,.351-.433l.012,0c.006,0,.011,0,.133.482s.127.484.133.482l.011,0a.47.47,0,0,0,.144-.07.5.5,0,0,0,.213-.39,1.137,1.137,0,0,0,0-.164c-.01-.12-.038-.333-.105-.727Zm-.073-.356.012.054q.027.13.052.26l.008.04,0,.011v0l.491-.1.49-.1v0l0-.012q-.016-.086-.035-.172-.025-.133-.057-.264l-.962.275ZM77.3,58.625a7.218,7.218,0,0,1,.55,1.519l.973-.23a8.2,8.2,0,0,0-.627-1.731l-.9.442Zm-.428-.738q.211.33.394.676l.038.071,0,0,.442-.234.441-.235v0l0,0-.009-.017-.033-.06q-.2-.38-.433-.743l-.839.544Zm-.285-.4q.14.189.273.382l.01.016,0,0,.42-.272.42-.272h0l0,0,0-.007q-.153-.223-.313-.44Zm-.244-.3q.129.156.255.316l.392-.31.392-.311,0,0,0-.006q-.04-.053-.083-.1c-.052-.065-.12-.149-.181-.222Zm-.261-.288c.1.1.139.145.17.18a1.229,1.229,0,0,1,.081.1l.787-.618A3.712,3.712,0,0,0,76.8,56.2Zm-.017-.018.017.018.72-.694-.017-.017-.72.693Zm-1.222-1.012a7.345,7.345,0,0,1,1.225,1.016l.714-.7a8.41,8.41,0,0,0-1.39-1.152l-.549.836Z" fill="#8cefe9"/>
  </g>
</svg>
