<svg xmlns="http://www.w3.org/2000/svg" width="86.985" height="90.001" viewBox="0 0 86.985 90.001">
  <path id="icon_2" d="M45.593,89.691a5.872,5.872,0,0,1-.562-.244c-8.142-3.768-16.135-8.1-22.856-13.878a50.225,50.225,0,0,1-4.544-4.419l-.17-.192q-.89-1.006-1.725-2.058s-.555-.71-.837-1.1c-.222-.3-.5-.7-.5-.7a38.9,38.9,0,0,1-3.1-5.247s-.252-.511-.466-.977l-.148-.333A45.46,45.46,0,0,1,7.6,50.352l-.147-.858-.119-.74q-.4-2.656-.592-5.337s-.11-1.591-.155-2.79c-.052-1.325-.074-2.65-.082-3.968v-.14a4.573,4.573,0,0,1,.3-2.028,3.1,3.1,0,0,1,1.436-1.436,3.059,3.059,0,0,1,1.332-.3c.23.022.459.051.68.073a3.655,3.655,0,0,1,1.718,1.081,3.111,3.111,0,0,1,.592,1.229,9.78,9.78,0,0,1,.082,2.028q.021,2.785.207,5.566.1,1.419.259,2.834s.081.726.155,1.251c.06.422.14,1.007.14,1.007l.1.659c.052.288.111.65.111.65q.329,1.8.792,3.569a36.86,36.86,0,0,0,1.37,4.122l.392.94c.155.355.155.355.207.459.111.244.26.555.26.555.128.271.216.454.266.548l.23.459c.25.488.517.962.784,1.436l.052.088A35.7,35.7,0,0,0,21.989,66.8s.689.77,1.318,1.414C29.354,74.407,37.11,78.8,44.7,82.5c.726.355,1.45.695,2.184,1.043q3.948-1.816,7.764-3.9a4.112,4.112,0,0,1,1.636-.378A3.192,3.192,0,0,1,59.2,82.326,3.48,3.48,0,0,1,57.2,85.25c-.466.252-1.1.592-1.1.592q-3.84,2.019-7.794,3.812c-.037.015-.081.037-.14.06A2.782,2.782,0,0,1,47.014,90a2.254,2.254,0,0,1-.319,0,2.858,2.858,0,0,1-1.08-.29l-.023-.014ZM3.538.007H4.1c.185.052.37.074.555.126l16.18,2.79.606.17a6.086,6.086,0,0,1,1.044.69l33.87,33.868L56.4,37.6a3.247,3.247,0,0,1,2.346-.9,3.293,3.293,0,0,1,2,.9l1.214,1.214L69.367,31.4a3.23,3.23,0,0,1,2.4-.888,2.722,2.722,0,0,1,.807.17,3.169,3.169,0,0,1,1.828,1.8l4.745,12.494a2.545,2.545,0,0,1,.185.777,3.132,3.132,0,0,1-.666,2.25c-.09.11-.119.133-.215.237L70.6,56.1,81.779,67.265l.474.51s.444.548.525.652a4.287,4.287,0,0,1,.585.888c.207.355.437.844.481.932l.119.274.051.126c.215.563.23.63.23.63.118.391.192.695.207.747a7.792,7.792,0,0,1,.185,1.006,10.842,10.842,0,0,0,.089,1.266v.5c-.007.178-.022.407-.022.407a3.027,3.027,0,0,1-.037.363l-.052.363c-.015.1-.03.177-.03.177a3.615,3.615,0,0,1-.133.644l-.126.466a5.276,5.276,0,0,1-.17.526l-.133.348c-.037.1-.089.207-.089.207a10.132,10.132,0,0,1-.585,1.17c-.133.236-.148.244-.207.34-.118.178-.281.407-.281.407-.1.133-.2.267-.3.4a6.985,6.985,0,0,1-1.1,1.177s-.555.488-.977.784a13.155,13.155,0,0,1-1.614.933s-.858.355-1.258.48a10.228,10.228,0,0,1-7.305-.576c-.06-.03-.111-.052-.163-.082-.148-.074-.289-.155-.437-.237-.222-.126-.518-.318-.518-.318a5.037,5.037,0,0,1-.821-.607s-.393-.318-.763-.688L56.43,70.306l-7.7,7.7a2.614,2.614,0,0,1-.637.489,3.1,3.1,0,0,1-2.339.3c-.14-.037-.17-.052-.3-.1L33.027,73.9c-.134-.059-.17-.066-.3-.133a3.184,3.184,0,0,1-.984-4.656,2.4,2.4,0,0,1,.222-.244l7.194-7.194-1.214-1.214a2.649,2.649,0,0,1-.23-.259,3.143,3.143,0,0,1,0-3.826c.1-.119.127-.148.23-.26l.045-.044L4.116,22.2a5.258,5.258,0,0,1-.4-.5,3.134,3.134,0,0,1-.458-1.192L.541,3.569C.533,3.324.5,3.08.511,2.843A3.112,3.112,0,0,1,1.991.453,3.021,3.021,0,0,1,3.368.021h.2L3.538.006ZM61.025,55.222,56.888,59.36l-1.37,1.369L58.5,63.712l.014.015a.948.948,0,0,1,.119.126q6.65,6.66,13.3,13.3a3.994,3.994,0,0,0,5.248.2c.089-.074.177-.156.259-.237a3.92,3.92,0,0,0,.97-1.658,4.027,4.027,0,0,0-.445-3.16,3.653,3.653,0,0,0-.54-.674L61.018,55.215Zm-9.85,9.852L49.028,67.22c-.111.1-.141.133-.26.23a3.154,3.154,0,0,1-3.833,0c-.119-.1-.148-.126-.26-.23l-1.213-1.214L39.6,69.862l6.166,2.384,6.283-6.284-.888-.888h.015Zm2.849-16.4-9.548,9.548-.045.045L46.859,60.7l5.684-5.684L58.857,48.7,61,46.555l-2.428-2.427-4.552,4.551h.008ZM46.859,6.255c-4.16,1.133-8.275,2.369-12.4,3.65a4.041,4.041,0,0,1-1.5.08,3.183,3.183,0,0,1-2.124-4.44,3.188,3.188,0,0,1,1.8-1.505c4.323-1.339,8.675-2.64,13-3.818l.214-.06A4.163,4.163,0,0,1,46.941,0h.051A2.884,2.884,0,0,1,47.5.081L47.658.1c11.82,3.22,23.389,7.06,35.054,10.776l.621.2.622.2.659.3a3.087,3.087,0,0,1,1.021,1.006,4.957,4.957,0,0,1,.533,2.206c.392,4.463.777,8.919,1.036,13.375.074,1.347.141,2.694.193,4.04,0,0,.052,1.444.074,2.673,0,0,.007.584.015,1.05.03,2.74-.037,5.485-.252,8.187,0,0-.06.77-.111,1.28q-.27,2.8-.807,5.566c-.03.133-.03.17-.059.3q-.33,1.643-.785,3.256s-.229.83-.473,1.592c-.126.4-.14.436-.185.57-.067.2-.1.288-.244.71-.082.23-.17.466-.252.7l-.311.614a3.3,3.3,0,0,1-3.642,1.192,3.166,3.166,0,0,1-1.976-3.287c.282-2.131,1.288-3.856,1.85-6.587.163-.807.3-1.62.43-2.435,0,0,.1-.637.155-1.11.074-.57.141-1.14.193-1.71,0,0,.066-.7.1-1.162.163-2.043.23-4.115.237-6.173v-1.14c0-.5-.014-1.162-.014-1.162-.008-.5-.023-1.014-.038-1.517q-.017-.514-.03-1.029-.119-3.062-.317-6.12l-.023-.37q-.343-4.763-.755-9.52V16.5C69.13,12.975,58.072,9.31,46.881,6.239l-.022.015ZM66.3,43.174l1.213,1.214a3.348,3.348,0,0,1,.23.259,3.142,3.142,0,0,1,0,3.826c-.1.119-.126.148-.23.26L65.37,50.879l.888.888L72.7,45.32l-2.354-6.195ZM9.133,18.548,42.3,51.714l2.39-2.4L8.068,11.9l1.066,6.646ZM12.605,7.757l36.43,37.222.637-.637L52,42.011,18.823,8.83,12.6,7.757H12.6Z" transform="translate(-0.507)" fill="#8cefe9" fill-rule="evenodd"/>
</svg>
